<?xml version="1.0" encoding="UTF-8"?>
<svg xmlns="http://www.w3.org/2000/svg" xmlns:xlink="http://www.w3.org/1999/xlink" width="375pt" height="374.999991pt" viewBox="0 0 375 374.999991" version="1.2">
<g id="surface1">
<path style=" stroke:none;fill-rule:nonzero;fill:rgb(79.998779%,0%,0%);fill-opacity:1;" d="M 147.769531 345.605469 C 144.917969 344.839844 143.519531 343.652344 142.921875 341.496094 C 142.640625 340.476562 142.484375 304.277344 142.484375 238.515625 C 142.480469 125.40625 142.234375 134.113281 145.53125 130.8125 C 146.527344 129.8125 148.175781 128.789062 149.574219 128.300781 C 151.804688 127.523438 153.894531 127.476562 187.558594 127.476562 C 227.390625 127.476562 225.691406 127.351562 229.492188 130.609375 C 232.90625 133.539062 232.652344 124.441406 232.527344 239.761719 L 232.414062 342.765625 L 231.316406 343.859375 C 229.574219 345.589844 225.859375 346.3125 218.6875 346.3125 C 213.019531 346.3125 212.320312 346.226562 211.535156 345.441406 C 211.058594 344.960938 210.535156 344.042969 210.375 343.394531 C 210.210938 342.746094 210.1875 327.417969 210.324219 309.332031 C 210.507812 284.71875 210.707031 276.0625 211.117188 274.910156 C 211.417969 274.0625 212.625 271.652344 213.796875 269.554688 C 214.96875 267.457031 216.125 264.703125 216.367188 263.433594 C 216.960938 260.285156 216.945312 210.429688 216.347656 208.273438 C 216.101562 207.378906 215.300781 206.144531 214.570312 205.53125 C 211.988281 203.355469 211.171875 203.285156 187.117188 203.285156 C 164.992188 203.285156 164.660156 203.300781 162.613281 204.25 C 161.355469 204.832031 160.179688 205.789062 159.636719 206.671875 C 158.757812 208.109375 158.742188 208.621094 158.855469 237.003906 L 158.972656 265.875 L 161.609375 270.855469 L 164.25 275.835938 L 164.25 310.449219 C 164.25 344.203125 164.226562 345.074219 163.394531 345.6875 C 162.203125 346.558594 151.101562 346.503906 147.769531 345.605469 Z M 193.730469 189.179688 C 208.9375 185.316406 218.339844 170.007812 214.601562 155.203125 C 213.207031 149.683594 211.375 146.496094 207.128906 142.214844 C 201.179688 136.210938 195.371094 133.71875 187.335938 133.71875 C 179.449219 133.71875 173.53125 136.21875 167.726562 142 C 160.714844 148.984375 157.953125 157.859375 159.878906 167.214844 C 162.082031 177.894531 169.945312 186.207031 180.464844 188.972656 C 184.328125 189.988281 190.1875 190.078125 193.730469 189.179688 Z M 180.058594 113.421875 C 175.164062 112.480469 171.992188 111.449219 168.253906 109.585938 C 156.664062 103.800781 148.527344 93.808594 145.011719 81.042969 C 144.234375 78.21875 144.082031 76.457031 144.089844 70.179688 C 144.09375 63.316406 144.195312 62.351562 145.285156 58.71875 C 147.667969 50.765625 151.039062 45.007812 156.519531 39.511719 C 161.960938 34.058594 168.515625 30.210938 176.132812 28.003906 C 179.238281 27.101562 180.546875 26.988281 187.558594 27.007812 C 194.871094 27.03125 195.765625 27.125 199.335938 28.222656 C 214.472656 32.886719 225.511719 44.238281 229.632812 59.378906 C 230.523438 62.648438 230.652344 64.082031 230.621094 70.621094 C 230.589844 77.4375 230.480469 78.46875 229.394531 82.078125 C 224.753906 97.527344 213.226562 108.78125 197.957031 112.765625 C 193.566406 113.914062 184.371094 114.25 180.058594 113.421875 Z M 180.058594 113.421875 "/>
</g>
</svg>
